# xmcd
# 
# Track frame offsets:
#     150
#     11849
#     27544
#     41576
#     56935
#     75004
#     89382
#     105751
#     121290
#     133414
#     148077
#     168086
#     185595
# 
# Disc length: 2606
# 
# Revision: 2
# Processed by: cddbd v1.5.2PL0 Copyright (c) Steve Scherf et al.
# Submitted via: fre:ac v1.0.27
# 
DISCID=aa0a2c0d
DTITLE=Yoan - Premier souffle, Yoan
DYEAR=2015
DGENRE=Country
TTITLE0=baby what you want me to do
TTITLE1=that kinda guy
TTITLE2=j'entends siffler le train
TTITLE3=my way home
TTITLE4=good hearted woman
TTITLE5=goodbye mother
TTITLE6=dis-moi
TTITLE7=tu m'as manque
TTITLE8=t'aimer trop
TTITLE9=gonna fall in love with you
TTITLE10=together soon
TTITLE11=one day
TTITLE12=baby what you want me to do (acoustique)
EXTD=
EXTT0=
EXTT1=
EXTT2=
EXTT3=
EXTT4=
EXTT5=
EXTT6=
EXTT7=
EXTT8=
EXTT9=
EXTT10=
EXTT11=
EXTT12=
PLAYORDER=
